<svg xmlns="http://www.w3.org/2000/svg" xmlns:xlink="http://www.w3.org/1999/xlink" version="1.1" id="tape" x="0px" y="0px" viewBox="0 0 210.679 210.679" style="enable-background:new 0 0 210.679 210.679;" xml:space="preserve" width="25px" height="25px">
<path d="M74.045,64.062c-22.759,0-41.274,18.516-41.274,41.274c0,22.759,18.516,41.275,41.274,41.275s41.274-18.516,41.274-41.275  C115.319,82.577,96.804,64.062,74.045,64.062z M74.045,136.8c-17.377,0-31.464-14.087-31.464-31.464  c0-17.377,14.087-31.464,31.464-31.464c17.377,0,31.464,14.087,31.464,31.464C105.509,122.713,91.423,136.8,74.045,136.8z   M205.826,143.38c-2.732-0.119-5.062,2.063-5.144,4.824c-0.018,0.351-0.547,8.668-9.583,15.697  c-6.179,4.804-17.696,5.589-21.606,5.482c-0.05-0.001-0.099-0.002-0.147-0.002h-58.211c22.073-12.833,36.956-36.726,36.956-64.046  c0-40.829-33.217-74.046-74.046-74.046C33.217,31.29,0,64.507,0,105.336c0,40.829,33.217,74.046,74.045,74.046h95.236  c0.128,0.003,0.368,0.007,0.708,0.007c3.571,0,18.075-0.459,27.249-7.595c12.905-10.037,13.423-22.708,13.439-23.243  C210.758,145.791,208.587,143.461,205.826,143.38z M22.771,105.336c0-28.272,23.002-51.274,51.274-51.274  c28.272,0,51.274,23.002,51.274,51.274c0,28.272-23.002,51.275-51.274,51.275C45.772,156.611,22.771,133.608,22.771,105.336z" fill="#b0bec5"/>
</svg>